<?xml version="1.0" encoding="UTF-8" standalone="no"?>
<!-- Created with Inkscape (http://www.inkscape.org/) -->

<svg
   xmlns:dc="http://purl.org/dc/elements/1.1/"
   xmlns:cc="http://creativecommons.org/ns#"
   xmlns:rdf="http://www.w3.org/1999/02/22-rdf-syntax-ns#"
   xmlns:svg="http://www.w3.org/2000/svg"
   xmlns="http://www.w3.org/2000/svg"
   xmlns:sodipodi="http://sodipodi.sourceforge.net/DTD/sodipodi-0.dtd"
   xmlns:inkscape="http://www.inkscape.org/namespaces/inkscape"
   id="svg2"
   version="1.1"
   inkscape:version="0.48.3.1 r9886"
   width="9"
   height="13"
   sodipodi:docname="parking.svg">
  <metadata
     id="metadata8">
    <rdf:RDF>
      <cc:Work
         rdf:about="">
        <dc:format>image/svg+xml</dc:format>
        <dc:type
           rdf:resource="http://purl.org/dc/dcmitype/StillImage" />
        <dc:title></dc:title>
      </cc:Work>
    </rdf:RDF>
  </metadata>
  <defs
     id="defs6" />
  <sodipodi:namedview
     pagecolor="#ffffff"
     bordercolor="#666666"
     borderopacity="1"
     objecttolerance="10"
     gridtolerance="10"
     guidetolerance="10"
     inkscape:pageopacity="0"
     inkscape:pageshadow="2"
     inkscape:window-width="962"
     inkscape:window-height="578"
     id="namedview4"
     showgrid="true"
     inkscape:snap-global="true"
     inkscape:zoom="25.673415"
     inkscape:cx="3.5416083"
     inkscape:cy="7.9545751"
     inkscape:window-x="-8"
     inkscape:window-y="-8"
     inkscape:window-maximized="1"
     inkscape:current-layer="svg2">
    <inkscape:grid
       type="xygrid"
       id="grid2987" />
  </sodipodi:namedview>
  <rect
     style="fill:#ffffff;fill-opacity:1;stroke:none"
     id="rect2989"
     width="8.4661016"
     height="12.228813"
     x="0.26694915"
     y="0.38559321"
     rx="0.94067794" />
  <path
     style="fill:#007dff;fill-opacity:1;stroke:none"
     d="M 1 1 L 1 12 L 8 12 L 8 1 L 1 1 z M 2 2 L 2.5 2 L 5.4375 2 L 5.65625 2 L 5.8125 2.15625 L 6.875 3.21875 L 7 3.375 L 7 3.5625 L 7 6.53125 L 7 6.75 L 6.84375 6.90625 L 5.84375 7.875 L 5.6875 8 L 5.5 8 L 3 8 L 3 11 L 2 11 L 2 2.5 L 2 2 z M 3 3 L 3 7 L 5.3125 7 L 6 6.34375 L 6 3.78125 L 5.25 3 L 3 3 z "
     id="rect2991" />
</svg>
