<?xml version="1.0" encoding="UTF-8" standalone="no"?>
<!-- Created with Inkscape (http://www.inkscape.org/) -->

<svg
   xmlns:dc="http://purl.org/dc/elements/1.1/"
   xmlns:cc="http://creativecommons.org/ns#"
   xmlns:rdf="http://www.w3.org/1999/02/22-rdf-syntax-ns#"
   xmlns:svg="http://www.w3.org/2000/svg"
   xmlns="http://www.w3.org/2000/svg"
   xmlns:sodipodi="http://sodipodi.sourceforge.net/DTD/sodipodi-0.dtd"
   xmlns:inkscape="http://www.inkscape.org/namespaces/inkscape"
   width="7"
   height="16"
   id="svg3777"
   version="1.1"
   inkscape:version="0.48.3.1 r9886"
   sodipodi:docname="traffic_signal-bw.svg">
  <defs
     id="defs3779" />
  <sodipodi:namedview
     id="base"
     pagecolor="#ffffff"
     bordercolor="#666666"
     borderopacity="1.0"
     inkscape:pageopacity="0.0"
     inkscape:pageshadow="2"
     inkscape:zoom="7.9195959"
     inkscape:cx="4.4638716"
     inkscape:cy="14.550923"
     inkscape:document-units="px"
     inkscape:current-layer="layer1"
     showgrid="false"
     fit-margin-top="0"
     fit-margin-left="0"
     fit-margin-right="0"
     fit-margin-bottom="0"
     inkscape:window-width="962"
     inkscape:window-height="578"
     inkscape:window-x="-8"
     inkscape:window-y="-8"
     inkscape:window-maximized="1" />
  <metadata
     id="metadata3782">
    <rdf:RDF>
      <cc:Work
         rdf:about="">
        <dc:format>image/svg+xml</dc:format>
        <dc:type
           rdf:resource="http://purl.org/dc/dcmitype/StillImage" />
        <dc:title></dc:title>
      </cc:Work>
    </rdf:RDF>
  </metadata>
  <g
     inkscape:label="Layer 1"
     inkscape:groupmode="layer"
     id="layer1"
     transform="translate(-4.9264359,-1036.8606)">
    <rect
       style="fill:#ffffff;fill-opacity:1;stroke:none"
       id="rect3812-9"
       width="6.2571445"
       height="15.822854"
       x="5.2978635"
       y="1036.9492"
       rx="2.8032007" />
    <rect
       style="fill:#000000;fill-opacity:1;stroke:none"
       id="rect3812"
       width="5.3571429"
       height="14.718"
       x="5.7478642"
       y="1037.5016"
       rx="2.4000001" />
    <g
       id="g4433"
       transform="translate(1.25e-8,-0.02927316)">
      <path
         transform="matrix(0.90357635,0,0,0.90357635,2.7790837,1043.0505)"
         d="m 8.2142857,2.0357141 c 0,1.0848451 -0.8794406,1.9642858 -1.9642857,1.9642858 -1.0848451,0 -1.9642857,-0.8794407 -1.9642857,-1.9642858 0,-1.084845 0.8794406,-1.96428568 1.9642857,-1.96428568 1.0848451,0 1.9642857,0.87944068 1.9642857,1.96428568 z"
         sodipodi:ry="1.9642857"
         sodipodi:rx="1.9642857"
         sodipodi:cy="2.0357141"
         sodipodi:cx="6.25"
         id="path3785-7-4"
         style="fill:#ffffff;fill-opacity:1;stroke:none"
         sodipodi:type="arc" />
      <path
         transform="matrix(0.90357635,0,0,0.90357635,2.7790837,1038.3943)"
         d="m 8.2142857,2.0357141 c 0,1.0848451 -0.8794406,1.9642858 -1.9642857,1.9642858 -1.0848451,0 -1.9642857,-0.8794407 -1.9642857,-1.9642858 0,-1.084845 0.8794406,-1.96428568 1.9642857,-1.96428568 1.0848451,0 1.9642857,0.87944068 1.9642857,1.96428568 z"
         sodipodi:ry="1.9642857"
         sodipodi:rx="1.9642857"
         sodipodi:cy="2.0357141"
         sodipodi:cx="6.25"
         id="path3785-7-4-4"
         style="fill:#ffffff;fill-opacity:1;stroke:none"
         sodipodi:type="arc" />
      <path
         transform="matrix(0.90357635,0,0,0.90357635,2.7790837,1047.7066)"
         d="m 8.2142857,2.0357141 c 0,1.0848451 -0.8794406,1.9642858 -1.9642857,1.9642858 -1.0848451,0 -1.9642857,-0.8794407 -1.9642857,-1.9642858 0,-1.084845 0.8794406,-1.96428568 1.9642857,-1.96428568 1.0848451,0 1.9642857,0.87944068 1.9642857,1.96428568 z"
         sodipodi:ry="1.9642857"
         sodipodi:rx="1.9642857"
         sodipodi:cy="2.0357141"
         sodipodi:cx="6.25"
         id="path3785-7-4-8"
         style="fill:#ffffff;fill-opacity:1;stroke:none"
         sodipodi:type="arc" />
    </g>
  </g>
</svg>
