<?xml version="1.0" encoding="UTF-8" standalone="no"?>
<!-- Created with Inkscape (http://www.inkscape.org/) -->

<svg
   xmlns:dc="http://purl.org/dc/elements/1.1/"
   xmlns:cc="http://creativecommons.org/ns#"
   xmlns:rdf="http://www.w3.org/1999/02/22-rdf-syntax-ns#"
   xmlns:svg="http://www.w3.org/2000/svg"
   xmlns="http://www.w3.org/2000/svg"
   version="1.1"
   width="16"
   height="15"
   id="svg2">
  <defs
     id="defs4" />
  <metadata
     id="metadata7">
    <rdf:RDF>
      <cc:Work
         rdf:about="">
        <dc:format>image/svg+xml</dc:format>
        <dc:type
           rdf:resource="http://purl.org/dc/dcmitype/StillImage" />
        <dc:title></dc:title>
      </cc:Work>
    </rdf:RDF>
  </metadata>
  <g
     transform="translate(0,-1037.3622)"
     id="layer1">
    <path
       d="m -1.15625,1040.0312 c -0.00939,0 -0.0532,0.029 -0.0625,0.031 -0.00465,10e-4 -0.017382,0 -0.03125,0 -0.013868,0 -0.026657,0 -0.03125,0 -0.019514,0 -0.055276,0.029 -0.0625,0.031 -0.01032,0 -0.052349,0 -0.0625,0 -0.010151,0 -0.05255,0.027 -0.0625,0.031 -0.00995,0 -0.052782,0.027 -0.0625,0.031 -0.00972,0 -0.084296,0.026 -0.09375,0.031 -0.00945,0 -0.05334,0.026 -0.0625,0.031 -0.00916,0.01 -0.053662,0.056 -0.0625,0.062 -0.00884,0.01 -0.054013,0.025 -0.0625,0.031 -0.00849,0.01 -0.05439,0.024 -0.0625,0.031 -0.00811,0.01 -0.023543,0.055 -0.03125,0.062 -0.00771,0.01 -0.055221,0.055 -0.0625,0.063 -0.00728,0.01 -0.055672,0.054 -0.0625,0.062 -0.00683,0.01 -0.024894,0.023 -0.03125,0.031 -0.00636,0.01 -0.025387,0.054 -0.03125,0.062 -0.00586,0.01 -0.057148,0.053 -0.0625,0.062 -0.00535,0.01 -0.026426,0.084 -0.03125,0.094 l -6,12 c -0.00273,0.01 0.00255,0.026 0,0.031 -0.00255,0.01 -0.028873,0.026 -0.03125,0.031 -0.00238,0.01 0.0022,0.026 0,0.031 -0.0022,0.01 -0.02923,0.026 -0.03125,0.031 -0.00202,0.01 0.00184,0.057 0,0.063 -0.00184,0.01 -0.029596,0.025 -0.03125,0.031 -0.00165,0.01 0.00147,0.025 0,0.031 -0.00147,0.01 0.00128,0.057 0,0.063 -0.00128,0.01 -0.030157,0.025 -0.03125,0.031 -0.00109,0.01 9.032e-4,0.025 0,0.031 -9.032e-4,0.01 7.128e-4,0.057 0,0.063 -7.128e-4,0.01 5.217e-4,0.025 0,0.031 -5.217e-4,0.01 3.3e-4,0.025 0,0.031 -3.3e-4,0.01 1.38e-4,0.057 0,0.063 -1.38e-4,0.01 -5.41e-5,0.025 0,0.031 5.41e-5,0.01 -2.461e-4,0.025 0,0.031 2.461e-4,0.01 -4.38e-4,0.057 0,0.063 4.38e-4,0.01 -6.293e-4,0.025 0,0.031 6.293e-4,0.01 -8.201e-4,0.025 0,0.031 8.201e-4,0.01 -0.00101,0.057 0,0.063 0.00101,0.01 -0.0012,0.025 0,0.031 0.0012,0.01 0.029863,0.025 0.03125,0.031 0.00139,0.01 -0.00157,0.057 0,0.063 0.00157,0.01 -0.00176,0.025 0,0.031 0.00176,0.01 0.02931,0.025 0.03125,0.031 0.00194,0.01 -0.00212,0.057 0,0.063 0.00212,0.01 0.02895,0.026 0.03125,0.031 0.0023,0.01 -0.00248,0.026 0,0.031 0.00248,0.01 0.0286,0.026 0.03125,0.031 0.00265,0.01 0.028429,0.057 0.03125,0.062 0.00282,0.01 -0.00299,0.026 0,0.031 0.00299,0.01 0.028095,0.026 0.03125,0.031 0.00316,0.01 0.027933,0.026 0.03125,0.031 0.00332,0 -0.00348,0.026 0,0.031 0.00348,0 0.027619,0.026 0.03125,0.031 0.00363,0 0.027467,0.027 0.03125,0.031 0.00378,0 0.027319,0.027 0.03125,0.031 0.00393,0 0.027176,0.027 0.03125,0.031 0.00407,0 0.027036,0.027 0.03125,0.031 0.00421,0 0.026901,0.027 0.03125,0.031 0.00435,0 0.02677,0.027 0.03125,0.031 0.00448,0 0.026643,0.027 0.03125,0.031 0.00461,0 0.026522,0.027 0.03125,0.031 0.00473,0 0.026405,0.028 0.03125,0.031 0.00485,0 0.026293,0.028 0.03125,0.031 0.00496,0 0.026186,0 0.03125,0 0.00506,0 0.026084,0.028 0.03125,0.031 0.00517,0 0.025988,0.028 0.03125,0.031 0.00526,0 0.025896,0 0.03125,0 0.00535,0 0.05706,0.029 0.0625,0.031 0.00544,0 0.02573,0.029 0.03125,0.031 0.00552,0 0.025655,0 0.03125,0 0.00559,0 0.025586,0.029 0.03125,0.031 0.00566,0 0.056773,0 0.0625,0 0.00573,0 0.025466,0 0.03125,0 0.00578,0 0.025414,0.03 0.03125,0.031 0.00584,0 0.056618,0 0.0625,0 0.00588,0 0.025329,0 0.03125,0 0.00592,0 0.025295,0.03 0.03125,0.031 0.00596,10e-4 0.056517,-8e-4 0.0625,0 0.00598,8e-4 0.025246,-6e-4 0.03125,0 0.006,6e-4 0.02523,-4e-4 0.03125,0 0.00602,4e-4 0.056471,-2e-4 0.0625,0 0.00603,2e-4 0.025217,0 0.03125,0 l 12,0 c 0.00603,0 0.025221,2e-4 0.03125,0 0.00603,-2e-4 0.05648,4e-4 0.0625,0 0.00602,-4e-4 0.025246,6e-4 0.03125,0 0.006,-6e-4 0.025267,8e-4 0.03125,0 0.00598,-8e-4 0.056545,10e-4 0.0625,0 0.00596,-0 0.025329,-0.03 0.03125,-0.031 0.00592,0 0.025368,0 0.03125,0 0.00588,0 0.056664,0 0.0625,0 0.00584,0 0.025466,-0.029 0.03125,-0.031 0.00578,0 0.025523,0 0.03125,0 0.00573,0 0.056836,0 0.0625,0 0.00566,0 0.025655,-0.029 0.03125,-0.031 0.00559,0 0.02573,0 0.03125,0 0.00552,0 0.02581,-0.029 0.03125,-0.031 0.00544,0 0.057146,-0.028 0.0625,-0.031 0.00535,0 0.025988,0 0.03125,0 0.00526,0 0.026084,-0.028 0.03125,-0.031 0.00517,0 0.026186,-0.028 0.03125,-0.031 0.00506,0 0.026293,0 0.03125,0 0.00496,0 0.026405,-0.028 0.03125,-0.031 0.00485,0 0.026522,-0.027 0.03125,-0.031 0.00473,0 0.026643,-0.027 0.03125,-0.031 0.00461,0 0.02677,-0.027 0.03125,-0.031 0.00448,0 0.026901,-0.027 0.03125,-0.031 0.00435,0 0.027036,-0.027 0.03125,-0.031 0.00421,0 0.027176,-0.027 0.03125,-0.031 0.00407,0 0.027319,-0.027 0.03125,-0.031 0.00393,0 0.027467,-0.027 0.03125,-0.031 0.00378,0 0.027619,-0.026 0.03125,-0.031 0.00363,0 0.027774,-0.026 0.03125,-0.031 0.00348,0 -0.00332,-0.026 0,-0.031 0.00332,-0.01 0.028095,-0.026 0.03125,-0.031 0.00316,-0.01 0.02826,-0.026 0.03125,-0.031 0.00299,-0.01 -0.00282,-0.026 0,-0.031 0.00282,-0.01 0.0286,-0.057 0.03125,-0.062 0.00265,-0.01 0.028774,-0.026 0.03125,-0.031 0.00248,-0.01 -0.0023,-0.026 0,-0.031 0.0023,-0.01 0.029129,-0.026 0.03125,-0.031 0.00212,-0.01 -0.00194,-0.057 0,-0.063 0.00194,-0.01 0.029493,-0.025 0.03125,-0.031 0.00176,-0.01 -0.00157,-0.025 0,-0.031 0.00157,-0.01 -0.00139,-0.057 0,-0.063 0.00139,-0.01 0.030051,-0.025 0.03125,-0.031 0.0012,-0.01 -0.00101,-0.025 0,-0.031 0.00101,-0.01 -8.201e-4,-0.057 0,-0.063 8.201e-4,-0.01 -6.293e-4,-0.025 0,-0.031 6.293e-4,-0.01 -4.38e-4,-0.025 0,-0.031 4.38e-4,-0.01 -2.461e-4,-0.057 0,-0.063 2.461e-4,-0.01 -5.41e-5,-0.025 0,-0.031 5.41e-5,-0.01 1.38e-4,-0.025 0,-0.031 -1.38e-4,-0.01 3.3e-4,-0.057 0,-0.063 -3.3e-4,-0.01 5.217e-4,-0.025 0,-0.031 -5.217e-4,-0.01 7.128e-4,-0.025 0,-0.031 -7.128e-4,-0.01 9.032e-4,-0.057 0,-0.063 -9.032e-4,-0.01 0.00109,-0.025 0,-0.031 -0.00109,-0.01 -0.029969,-0.025 -0.03125,-0.031 -0.00128,-0.01 0.00147,-0.057 0,-0.063 -0.00147,-0.01 0.00165,-0.025 0,-0.031 -0.00165,-0.01 -0.029412,-0.025 -0.03125,-0.031 -0.00184,-0.01 0.00202,-0.057 0,-0.063 -0.00202,-0.01 -0.02905,-0.026 -0.03125,-0.031 -0.0022,-0.01 0.00238,-0.026 0,-0.031 -0.00238,-0.01 -0.028697,-0.026 -0.03125,-0.031 -0.00255,-0.01 0.00273,-0.026 0,-0.031 l -6,-12 c -0.002881,-0.01 -0.0281664,-0.057 -0.03125,-0.062 -0.003084,-0.01 0.003282,-0.026 0,-0.031 -0.003282,-0.01 -0.0277727,-0.026 -0.03125,-0.031 -0.003477,-0.01 -0.02758203,-0.026 -0.03125,-0.031 -0.003668,-0.01 -0.02739572,-0.057 -0.03125,-0.062 -0.0038543,-0.01 -0.02721404,-0.026 -0.03125,-0.031 -0.004036,-0.01 -0.02703721,-0.026 -0.03125,-0.031 -0.00421279,-0.01 -0.02686543,-0.026 -0.03125,-0.031 -0.0043846,0 -0.02669891,-0.027 -0.03125,-0.031 -0.0045511,0 -0.02653786,-0.027 -0.03125,-0.031 -0.0047121,0 -0.02638246,-0.027 -0.03125,-0.031 -0.004868,0 -0.0262329,-0.027 -0.03125,-0.031 -0.005017,0 -0.0260894,-0.027 -0.03125,-0.031 -0.005161,0 -0.025952,-0.027 -0.03125,-0.031 -0.005298,0 -0.0258211,-0.027 -0.03125,-0.031 -0.005429,0 -0.0569466,-0.028 -0.0625,-0.031 -0.005553,0 -0.0255788,0 -0.03125,0 -0.005671,0 -0.0254678,-0.028 -0.03125,-0.031 -0.005782,0 -0.0253638,-0.028 -0.03125,-0.031 -0.005886,0 -0.0565168,0 -0.0625,0 -0.005983,0 -0.0251769,-0.029 -0.03125,-0.031 -0.006073,0 -0.0563444,0 -0.0625,0 -0.006156,0 -0.0250193,-0.029 -0.03125,-0.031 -0.006231,0 -0.0249517,0 -0.03125,0 -0.006298,0 -0.0561416,-0.03 -0.0625,-0.031 -0.006358,0 -0.0248391,0 -0.03125,0 -0.006411,0 -0.0560443,0 -0.0625,0 -0.006456,0 -0.0247573,-0.03 -0.03125,-0.031 -0.006493,-9e-4 -0.0559781,8e-4 -0.0625,0 -0.006522,-7e-4 -0.0247067,6e-4 -0.03125,0 -0.006543,-5e-4 -0.0246932,3e-4 -0.03125,0 -0.006557,-2e-4 -0.0559375,10e-5 -0.0625,0 a 0.37889508,0.37889508 0 0 0 -0.03125,0 c -0.0095,7e-4 -0.053043,-10e-4 -0.0625,0 -0.00946,0 -0.053109,0 -0.0625,0 z"
       transform="translate(9,-2.4901217)"
       id="path3779"
       style="fill:#ffffff;fill-opacity:1;stroke:none" />
    <path
       d="m 2,1050.8833 12,0 -6,-12 z"
       id="path2987"
       style="fill:none;stroke:#000000;stroke-width:0.89999998;stroke-linecap:round;stroke-miterlimit:4;stroke-opacity:1;stroke-dasharray:none;stroke-dashoffset:0" />
    <path
       d="m 9.4419417,12 a 1.4419417,1.4419417 0 1 1 -2.8838834,0 1.4419417,1.4419417 0 1 1 2.8838834,0 z"
       transform="translate(0,1034.7191)"
       id="path3757"
       style="fill:#333333;stroke:none" />
  </g>
</svg>
