<?xml version="1.0" encoding="UTF-8" standalone="no"?>
<!-- Created with Inkscape (http://www.inkscape.org/) -->

<svg
   xmlns:dc="http://purl.org/dc/elements/1.1/"
   xmlns:cc="http://creativecommons.org/ns#"
   xmlns:rdf="http://www.w3.org/1999/02/22-rdf-syntax-ns#"
   xmlns:svg="http://www.w3.org/2000/svg"
   xmlns="http://www.w3.org/2000/svg"
   xmlns:sodipodi="http://sodipodi.sourceforge.net/DTD/sodipodi-0.dtd"
   xmlns:inkscape="http://www.inkscape.org/namespaces/inkscape"
   version="1.1"
   width="11"
   height="11"
   id="svg2"
   inkscape:version="0.48.3.1 r9886"
   sodipodi:docname="triangular-point.svg">
  <sodipodi:namedview
     pagecolor="#ffffff"
     bordercolor="#666666"
     borderopacity="1"
     objecttolerance="10"
     gridtolerance="10"
     guidetolerance="10"
     inkscape:pageopacity="0"
     inkscape:pageshadow="2"
     inkscape:window-width="640"
     inkscape:window-height="480"
     id="namedview9"
     showgrid="true"
     inkscape:zoom="42.909091"
     inkscape:cx="5.6459847"
     inkscape:cy="4.3427916"
     inkscape:window-x="0"
     inkscape:window-y="0"
     inkscape:window-maximized="0"
     inkscape:current-layer="svg2"
     inkscape:snap-global="false">
    <inkscape:grid
       type="xygrid"
       id="grid2986" />
  </sodipodi:namedview>
  <defs
     id="defs4" />
  <metadata
     id="metadata7">
    <rdf:RDF>
      <cc:Work
         rdf:about="">
        <dc:format>image/svg+xml</dc:format>
        <dc:type
           rdf:resource="http://purl.org/dc/dcmitype/StillImage" />
        <dc:title />
      </cc:Work>
    </rdf:RDF>
  </metadata>
  <path
     inkscape:connector-curvature="0"
     style="fill:#ffffff;stroke:none"
     id="path3808"
     d="M 5.3125063,0.1405 C 4.8492248,0.4674 4.7411041,1.0937 4.4461587,1.558 3.0454891,4.3448 1.6495284,7.134 0.25000634,9.9213 0.003817,10.625 0.80523625,10.7955 1.3177467,10.6973 c 3.0190865,0 6.0381729,0 9.0572593,0 C 11.118317,10.442 10.626765,9.6225 10.37485,9.1735 8.9165688,6.2665 7.4582876,3.3595 6.0000063,0.4525 5.8771051,0.1679 5.5900694,0.1162 5.3125063,0.1405 z" />
  <path
     inkscape:connector-curvature="0"
     style="fill:none;stroke:#000000;stroke-width:0.89999998;stroke-linecap:round;stroke-miterlimit:4;stroke-opacity:1;stroke-dasharray:none;stroke-dashoffset:0"
     id="path2987"
     d="m 1.7394501,9.5292 7.5210998,0 -3.76055,-7.5211 z" />
  <path
     inkscape:connector-curvature="0"
     style="fill:#333333;stroke:none"
     id="path3757"
     d="m 6.2902568,7.0184132 a 0.7902568,0.79026646 0 0 1 -1.5805136,0 0.7902568,0.79026646 0 1 1 1.5805136,0 z" />
</svg>
