<?xml version="1.0" encoding="UTF-8" standalone="no"?>
<!-- Generator: Adobe Illustrator 14.0.0, SVG Export Plug-In . SVG Version: 6.00 Build 43363)  -->

<svg
   xmlns:dc="http://purl.org/dc/elements/1.1/"
   xmlns:cc="http://creativecommons.org/ns#"
   xmlns:rdf="http://www.w3.org/1999/02/22-rdf-syntax-ns#"
   xmlns:svg="http://www.w3.org/2000/svg"
   xmlns="http://www.w3.org/2000/svg"
   xmlns:sodipodi="http://sodipodi.sourceforge.net/DTD/sodipodi-0.dtd"
   xmlns:inkscape="http://www.inkscape.org/namespaces/inkscape"
   version="1.0"
   id="Layer_1"
   x="0px"
   y="0px"
   width="16"
   height="16"
   viewBox="0 0 16.000001 16.000002"
   enable-background="new 0 0 81.59 99.992"
   xml:space="preserve"
   inkscape:version="0.48.3.1 r9886"
   sodipodi:docname="bus_station.svg"
   inkscape:export-filename="S:\velo100mapper\point\Noun\bus_station.png"
   inkscape:export-xdpi="120"
   inkscape:export-ydpi="120"><metadata
   id="metadata4494"><rdf:RDF><cc:Work
       rdf:about=""><dc:format>image/svg+xml</dc:format><dc:type
         rdf:resource="http://purl.org/dc/dcmitype/StillImage" /><dc:title /></cc:Work></rdf:RDF></metadata><defs
   id="defs4492" /><sodipodi:namedview
   pagecolor="#ffffff"
   bordercolor="#666666"
   borderopacity="1"
   objecttolerance="10"
   gridtolerance="10"
   guidetolerance="10"
   inkscape:pageopacity="0"
   inkscape:pageshadow="2"
   inkscape:window-width="962"
   inkscape:window-height="578"
   id="namedview4490"
   showgrid="true"
   fit-margin-top="0"
   fit-margin-left="0"
   fit-margin-right="0"
   fit-margin-bottom="0"
   inkscape:zoom="22.627417"
   inkscape:cx="7.0969719"
   inkscape:cy="7.6716365"
   inkscape:window-x="-8"
   inkscape:window-y="-8"
   inkscape:window-maximized="1"
   inkscape:current-layer="Layer_1"><inkscape:grid
     type="xygrid"
     id="grid3766"
     empspacing="5"
     visible="true"
     enabled="true"
     snapvisiblegridlinesonly="true" /></sodipodi:namedview>
<rect
   style="fill:#007dff;fill-opacity:1;stroke:none"
   id="rect2996"
   width="16.000002"
   height="16.000002"
   x="-4.5367432e-007"
   y="4.6325681e-008"
   rx="3.0000002" />

<g
   id="g4484"
   transform="matrix(0.13890475,0,0,0.13890475,2.3333812,1.0557879)"
   style="fill:#ffffff;fill-opacity:1">
	<path
   d="M 77.619,14.775 C 76.521,9.247 72.997,7.044 67.688,4.845 62.499,2.668 50.02,0.079 40.794,0 31.551,0.079 19.072,2.668 13.846,4.846 8.575,7.045 5.051,9.248 3.971,14.776 l -5.7707947,32.532769 0,39.166334 6.84,0 0,7.463897 c -0.027,8.071 13.5447947,8.071 13.5497947,0 l 0,-7.463897 c 14.683356,0 31.083778,0 44.41,0 L 63,93.939 c -0.014,8.071 13.558795,8.071 13.549795,0 l 0,-7.463897 6.84,0 0,-39.166334 z m -53.623,-7.6963235 16.385,0 17.212,0 c 3.286,-0.009 3.286,6.8579705 0,6.8739705 l -17.266,0 -16.331,0 c -3.302,-0.016 -3.302,-6.8829705 0,-6.8739705 z M 12.687,74.191 C 9.586,74.176 7.056,71.649 7.06,68.509 7.056,65.41 9.586,62.882 12.687,62.882 c 3.136,0 5.665,2.528 5.683,5.627 -0.018,3.14 -2.547,5.668 -5.683,5.682 z M 8.6262053,49.552284 c -2.9251319,0.0035 -3.54,-1.126515 -3.253,-3.237515 L 10.261,25.453698 c 0.425,-2.67 1.336,-3.647596 4.854,-3.672596 17.640277,0 34.965108,0 51.362,0 3.498,0.025 4.412,1.001596 4.854,3.672596 l 4.889795,20.861071 c 0.266,2.112 -0.347867,3.241031 -3.256,3.237515 -22.051427,0.127366 -43.462192,-0.01846 -64.3385897,0 z M 68.848,74.191 c -3.1,-0.015 -5.628,-2.542 -5.628,-5.682 0,-3.099 2.528,-5.627 5.628,-5.627 3.137,0 5.667,2.528 5.681,5.627 -0.014,3.14 -2.544,5.668 -5.681,5.682 z"
   id="path4486"
   inkscape:connector-curvature="0"
   style="fill:#ffffff;fill-opacity:1"
   sodipodi:nodetypes="cccccccccccccccccccccccccccsccccccccccccsscc" />
	<path
   d="m 40.381,-0.007 c 0.135,0 0.277,0.006 0.414,0.007 0.137,-0.001 0.278,-0.007 0.414,-0.007 h -0.828 z"
   id="path4488"
   inkscape:connector-curvature="0"
   style="fill:#ffffff;fill-opacity:1" />
</g>
</svg>