<?xml version="1.0" encoding="UTF-8" standalone="no"?>
<!-- Generator: Adobe Illustrator 14.0.0, SVG Export Plug-In . SVG Version: 6.00 Build 43363)  -->

<svg
   xmlns:dc="http://purl.org/dc/elements/1.1/"
   xmlns:cc="http://creativecommons.org/ns#"
   xmlns:rdf="http://www.w3.org/1999/02/22-rdf-syntax-ns#"
   xmlns:svg="http://www.w3.org/2000/svg"
   xmlns="http://www.w3.org/2000/svg"
   xmlns:sodipodi="http://sodipodi.sourceforge.net/DTD/sodipodi-0.dtd"
   xmlns:inkscape="http://www.inkscape.org/namespaces/inkscape"
   version="1.0"
   id="Layer_1"
   x="0px"
   y="0px"
   width="12"
   height="15"
   viewBox="0 0 12.000001 15.000002"
   enable-background="new 0 0 81.59 99.992"
   xml:space="preserve"
   inkscape:version="0.48.3.1 r9886"
   sodipodi:docname="bus_stop.svg"><metadata
   id="metadata4494"><rdf:RDF><cc:Work
       rdf:about=""><dc:format>image/svg+xml</dc:format><dc:type
         rdf:resource="http://purl.org/dc/dcmitype/StillImage" /><dc:title /></cc:Work></rdf:RDF></metadata><defs
   id="defs4492" /><sodipodi:namedview
   pagecolor="#ffffff"
   bordercolor="#666666"
   borderopacity="1"
   objecttolerance="10"
   gridtolerance="10"
   guidetolerance="10"
   inkscape:pageopacity="0"
   inkscape:pageshadow="2"
   inkscape:window-width="962"
   inkscape:window-height="578"
   id="namedview4490"
   showgrid="false"
   fit-margin-top="0"
   fit-margin-left="0"
   fit-margin-right="0"
   fit-margin-bottom="0"
   inkscape:zoom="22.627418"
   inkscape:cx="4.0758061"
   inkscape:cy="7.8984989"
   inkscape:window-x="-8"
   inkscape:window-y="-8"
   inkscape:window-maximized="1"
   inkscape:current-layer="Layer_1" />
<path
   sodipodi:type="inkscape:offset"
   inkscape:radius="0.32403255"
   inkscape:original="M 6.5 0.1875 C 5.0320652 0.24502817 3.4928107 0.41476967 2.15625 1.0625 C 1.3909528 1.4110568 0.90565928 2.2019436 0.875 3.03125 C 0.70726591 4.3466102 0.520356 5.6518935 0.375 6.96875 C 0.382713 8.9169958 0.3479843 10.86534 0.375 12.8125 C 0.4351424 13.307245 1.044784 13.199477 1.3125 13.28125 C 1.249371 13.93497 1.4784614 14.681952 2.15625 14.90625 C 3.0083247 15.259671 4.0529124 14.549368 4 13.625 C 3.941123 13.325667 4.0246253 13.171332 4.34375 13.25 L 9.03125 13.25 C 8.968761 13.914612 9.1780829 14.676823 9.875 14.90625 C 10.72694 15.25996 11.771993 14.54928 11.71875 13.625 C 11.65987 13.325667 11.74338 13.171332 12.0625 13.25 C 12.554507 13.29279 12.715501 12.769354 12.65625 12.375 C 12.64945 10.517341 12.64892 8.6690175 12.625 6.8125 C 12.422908 5.3751311 12.255582 3.9011113 12.03125 2.46875 C 11.747179 1.3329387 10.569087 0.84011472 9.53125 0.59375 C 8.5390205 0.35065144 7.5218358 0.20351332 6.5 0.1875 z "
   style="fill:#ffffff"
   id="path4589"
   d="M 6.5,-0.125 C 5.0251381,-0.06720036 3.429218,0.11107388 2.03125,0.78125 2.0225885,0.78540227 2.008648,0.77705898 2,0.78125 1.1375131,1.1860206 0.60758726,2.0722394 0.5625,3 c -4.9176e-4,0.010119 3.7452e-4,0.02112 0,0.03125 -0.1663137,1.3017563 -0.35502366,2.5928331 -0.5,3.90625 a 0.32406495,0.32406495 0 0 0 0,0.03125 c 0.0076944,1.9435399 -0.02711074,3.88974 0,5.84375 a 0.32406495,0.32406495 0 0 0 0,0.03125 c 0.02311925,0.190184 0.09177026,0.358229 0.21875,0.46875 0.12697974,0.110521 0.27980372,0.189247 0.40625,0.21875 0.16312864,0.03806 0.24346915,0.02232 0.34375,0.03125 0.00811,0.278592 0.00686,0.551307 0.125,0.8125 0.1599401,0.353617 0.4584828,0.697128 0.875,0.84375 0.0086,0.003 0.022545,-0.0029 0.03125,0 1.0738901,0.419242 2.3167197,-0.459421 2.25,-1.625 a 0.32406495,0.32406495 0 0 0 0,-0.03125 0.32406495,0.32406495 0 0 0 0.03125,0 l 4.40625,0 c 0.0086,0.27364 0.012233,0.553522 0.125,0.8125 0.1568408,0.360197 0.4488682,0.694357 0.875,0.84375 0.0088,0.0031 0.02234,-0.0029 0.03125,0 1.073901,0.41966 2.317148,-0.459328 2.25,-1.625 a 0.32406495,0.32406495 0 0 0 0,-0.03125 c 0.362662,0.03154 0.673431,-0.179825 0.8125,-0.4375 0.128619,-0.238312 0.151973,-0.505802 0.125,-0.75 -0.0022,-0.01984 0.0029,-0.04291 0,-0.0625 -0.0066,-1.835903 -0.0076,-3.6616634 -0.03125,-5.5 a 0.32406495,0.32406495 0 0 0 0,-0.03125 C 12.736227,5.3497069 12.569529,3.8478506 12.34375,2.40625 a 0.32406495,0.32406495 0 0 0 0,-0.03125 C 12.178809,1.7155102 11.757758,1.2643763 11.25,0.9375 10.742242,0.61062371 10.133102,0.40928292 9.59375,0.28125 8.5811582,0.03316262 7.5495615,-0.10855219 6.5,-0.125 z"
   transform="matrix(0.9213671,0,0,0.9213671,-0.00303069,0.49752271)" />

<g
   id="g4484"
   transform="matrix(0.12653029,0,0,0.12653029,0.83819732,1.1744197)"
   style="fill:#204a87">
	<path
   d="M 77.619,14.775 C 76.521,9.247 72.997,7.044 67.688,4.845 62.499,2.668 50.02,0.079 40.794,0 31.551,0.079 19.072,2.668 13.846,4.846 8.575,7.045 5.051,9.248 3.971,14.776 L 0,45.284 v 42.091 h 6.84 v 6.564 c -0.027,8.071 11.745,8.071 11.75,0 V 87.375 H 40.327 40.381 63 v 6.564 c -0.014,8.071 11.759,8.071 11.75,0 v -6.564 h 6.84 V 45.284 L 77.619,14.775 z M 23.996,7.715 h 16.385 17.212 c 3.286,-0.009 3.286,4.949 0,4.965 H 40.327 23.996 c -3.302,-0.016 -3.302,-4.974 0,-4.965 z M 12.687,74.191 C 9.586,74.176 7.056,71.649 7.06,68.509 7.056,65.41 9.586,62.882 12.687,62.882 c 3.136,0 5.665,2.528 5.683,5.627 -0.018,3.14 -2.547,5.668 -5.683,5.682 z M 40.381,48.482 H 10.426 C 7.501,48.51 6.886,46.401 7.173,44.29 l 3.088,-22.177 c 0.425,-2.67 1.336,-4.443 4.854,-4.468 h 25.213 26.149 c 3.498,0.025 4.412,1.797 4.854,4.468 l 3.09,22.177 c 0.266,2.112 -0.348,4.22 -3.256,4.192 H 40.381 z m 28.467,25.709 c -3.1,-0.015 -5.628,-2.542 -5.628,-5.682 0,-3.099 2.528,-5.627 5.628,-5.627 3.137,0 5.667,2.528 5.681,5.627 -0.014,3.14 -2.544,5.668 -5.681,5.682 z"
   id="path4486"
   inkscape:connector-curvature="0"
   style="fill:#204a87" />
	<path
   d="m 40.381,-0.007 c 0.135,0 0.277,0.006 0.414,0.007 0.137,-0.001 0.278,-0.007 0.414,-0.007 h -0.828 z"
   id="path4488"
   inkscape:connector-curvature="0"
   style="fill:#204a87" />
</g>
</svg>