<?xml version="1.0" encoding="UTF-8" standalone="no"?>
<!-- Generator: Adobe Illustrator 14.0.0, SVG Export Plug-In . SVG Version: 6.00 Build 43363)  -->

<svg
   xmlns:dc="http://purl.org/dc/elements/1.1/"
   xmlns:cc="http://creativecommons.org/ns#"
   xmlns:rdf="http://www.w3.org/1999/02/22-rdf-syntax-ns#"
   xmlns:svg="http://www.w3.org/2000/svg"
   xmlns="http://www.w3.org/2000/svg"
   xmlns:sodipodi="http://sodipodi.sourceforge.net/DTD/sodipodi-0.dtd"
   xmlns:inkscape="http://www.inkscape.org/namespaces/inkscape"
   version="1.0"
   id="Layer_1"
   x="0px"
   y="0px"
   width="12"
   height="17"
   viewBox="0 0 12 17"
   enable-background="new 0 0 66.461 100"
   xml:space="preserve"
   inkscape:version="0.48.3.1 r9886"
   sodipodi:docname="train.svg"><metadata
   id="metadata4553"><rdf:RDF><cc:Work
       rdf:about=""><dc:format>image/svg+xml</dc:format><dc:type
         rdf:resource="http://purl.org/dc/dcmitype/StillImage" /></cc:Work></rdf:RDF></metadata><defs
   id="defs4551" /><sodipodi:namedview
   pagecolor="#ffffff"
   bordercolor="#666666"
   borderopacity="1"
   objecttolerance="10"
   gridtolerance="10"
   guidetolerance="10"
   inkscape:pageopacity="0"
   inkscape:pageshadow="2"
   inkscape:window-width="962"
   inkscape:window-height="578"
   id="namedview4549"
   showgrid="false"
   fit-margin-top="0"
   fit-margin-left="0"
   fit-margin-right="0"
   fit-margin-bottom="0"
   inkscape:zoom="18.88"
   inkscape:cx="3.5562689"
   inkscape:cy="6.3932523"
   inkscape:window-x="-8"
   inkscape:window-y="-8"
   inkscape:window-maximized="1"
   inkscape:current-layer="Layer_1" />


<path
   style="fill:#ffffff"
   d="M 5.296875,0.42180208 C 4.6272103,0.41452808 4.1418844,0.9932292 4.140625,1.6093021 c 4.94e-5,0.023803 0.029734,0.03884 0.03125,0.0625 l -0.5,0 c -1.4432324,-0.00138 -2.5326939,1.1501551 -2.53125,2.46875 l 0,6.7187509 c -0.00102,0.90202 0.4977134,1.560481 1.15625,2 l -1.78124996,2.6875 c -0.2595106,0.401633 0.084322,1.031992 0.56249996,1.03125 l 1.25,0 c 0.2181776,0.0057 0.4361492,-0.103291 0.5625,-0.28125 l 1.34375,-2 1.75,0 1.78125,0 1.34375,2 c 0.1263508,0.177959 0.3443224,0.286945 0.5625,0.28125 l 1.25,0 c 0.478178,7.42e-4 0.82201,-0.629617 0.5625,-1.03125 l -1.78125,-2.6875 c 0.658737,-0.43961 1.157848,-1.097861 1.15625,-2 l 0,-6.7187509 c 0.0025,-1.3223274 -1.0924021,-2.4701302 -2.53125,-2.46875 l -0.5,0 c 0.00147,-0.023698 0.03125,-0.038658 0.03125,-0.0625 0,-0.617069 -0.4871301,-1.19441232 -1.15625,-1.18750002 C 6.4302724,0.41886409 6.2177537,0.55178784 6.015625,0.7030521 5.8095867,0.54078088 5.5803125,0.41875717 5.296875,0.42180208 z"
   id="path4580"
   inkscape:connector-curvature="0"
   sodipodi:nodetypes="cccccccccccccccccccccccsccc" /><g
   id="g4582"
   transform="translate(-2.0532365,0.60391714)"><path
     inkscape:connector-curvature="0"
     id="path4543"
     d="M 7.3590123,1.5223146 C 7.0723352,1.5212764 6.8387519,1.2876931 6.8381586,1.0016092 6.8387519,0.71137268 7.0723352,0.47764108 7.3590123,0.48075548 c 0.289495,-0.00311 0.52293,0.2306172 0.5207054,0.52085372 0.00222,0.2860839 -0.2313587,0.5196672 -0.5207054,0.5207054 l 0,0 z" /><path
     inkscape:connector-curvature="0"
     id="path4545"
     d="m 8.7477577,1.5223146 c 0.287122,-0.00104 0.5208536,-0.2346215 0.5208536,-0.5207054 0,-0.29023652 -0.2337316,-0.52381982 -0.5208536,-0.52085372 C 8.4585593,0.47764108 8.224976,0.71137268 8.226904,1.0016092 8.224976,1.2876931 8.4585593,1.5212764 8.7477577,1.5223146 l 0,0 z" /><path
     inkscape:connector-curvature="0"
     id="path4547"
     d="m 10.8156,12.058182 c 0.722551,-0.11998 1.443026,-0.874714 1.441394,-1.795848 V 3.5375081 C 12.258774,2.5893824 11.459845,1.7176347 10.37765,1.7186728 H 8.0608003 5.7360904 C 4.6473698,1.7176347 3.8484408,2.5893824 3.849479,3.5375081 v 6.7248259 c -0.00104,0.921134 0.7195848,1.676016 1.4413943,1.795848 L 3.125,15.311441 h 1.2525997 l 1.547137,-2.279476 h 2.1285 2.1283513 l 1.554553,2.279476 h 1.245332 L 10.8156,12.058182 z M 6.830595,2.4133421 C 6.8308916,2.2448655 6.9743043,2.1060503 7.1398148,2.1036774 H 8.0530884 8.9665103 C 9.132169,2.1060503 9.276175,2.2448655 9.276175,2.4133421 v 0.5278241 c 0,0.1680317 -0.1358491,0.3102579 -0.3096647,0.3096647 H 8.0532367 7.1399631 C 6.966889,3.2514241 6.8310399,3.1091979 6.8307433,2.9411662 V 2.4133421 z M 5.6908568,11.07728 C 5.2371862,11.07388 4.8673089,10.703992 4.868347,10.247059 4.867307,9.7916077 5.2371862,9.4221757 5.6908568,9.4244007 6.149125,9.4220007 6.5190023,9.7916077 6.5210786,10.247059 6.5191486,10.70414 6.149125,11.073869 5.6908568,11.07728 z M 5.7965996,6.707567 C 5.2763392,6.7044526 4.8520333,6.3485161 4.8530714,5.7638905 V 4.5565244 c 0.00371,-0.50365 0.3290929,-0.9426383 0.9435282,-0.9436765 h 2.2566371 2.2564883 c 0.615177,0.00104 0.940711,0.4400265 0.943677,0.9436765 v 1.2073661 c 0.0016,0.5846256 -0.422675,0.9407104 -0.943677,0.9436765 H 8.0532367 5.7965996 z m 3.7738162,3.53964 c -0.00133,-0.4554503 0.3680976,-0.8248833 0.8223612,-0.8226583 0.458268,-0.0024 0.828146,0.367208 0.830519,0.8226583 -0.0024,0.456933 -0.372251,0.826662 -0.830519,0.830222 -0.4542636,-0.0036 -0.823696,-0.373289 -0.8223612,-0.830222 z" /></g>
</svg>