<?xml version="1.0" encoding="UTF-8" standalone="no"?>
<!-- Generator: Adobe Illustrator 14.0.0, SVG Export Plug-In . SVG Version: 6.00 Build 43363)  -->

<svg
   xmlns:dc="http://purl.org/dc/elements/1.1/"
   xmlns:cc="http://creativecommons.org/ns#"
   xmlns:rdf="http://www.w3.org/1999/02/22-rdf-syntax-ns#"
   xmlns:svg="http://www.w3.org/2000/svg"
   xmlns="http://www.w3.org/2000/svg"
   xmlns:sodipodi="http://sodipodi.sourceforge.net/DTD/sodipodi-0.dtd"
   xmlns:inkscape="http://www.inkscape.org/namespaces/inkscape"
   version="1.0"
   id="Layer_1"
   x="0px"
   y="0px"
   width="17"
   height="24"
   viewBox="0 0 17 24"
   enable-background="new 0 0 66.461 100"
   xml:space="preserve"
   inkscape:version="0.48.4 r9939"
   sodipodi:docname="train-color.svg"><metadata
     id="metadata4553"><rdf:RDF><cc:Work
         rdf:about=""><dc:format>image/svg+xml</dc:format><dc:type
           rdf:resource="http://purl.org/dc/dcmitype/StillImage" /><dc:title></dc:title></cc:Work></rdf:RDF></metadata><defs
     id="defs4551" /><sodipodi:namedview
     pagecolor="#ffffff"
     bordercolor="#666666"
     borderopacity="1"
     objecttolerance="10"
     gridtolerance="10"
     guidetolerance="10"
     inkscape:pageopacity="0"
     inkscape:pageshadow="2"
     inkscape:window-width="1024"
     inkscape:window-height="580"
     id="namedview4549"
     showgrid="false"
     fit-margin-top="0"
     fit-margin-left="0"
     fit-margin-right="0"
     fit-margin-bottom="0"
     inkscape:zoom="13.350176"
     inkscape:cx="2.3694214"
     inkscape:cy="14.1304"
     inkscape:window-x="-2"
     inkscape:window-y="-3"
     inkscape:window-maximized="1"
     inkscape:current-layer="Layer_1" /><path
     style="fill:#ffffff"
     d="M 7.3125369,0.15601268 C 6.3230861,0.14527101 5.6060018,1.0003143 5.604141,1.9105814 c 7.3e-5,0.03517 0.043933,0.057387 0.046173,0.092346 l -0.7387658,0 C 2.7791267,2.0008881 1.1694129,3.7023176 1.1715463,5.650583 l 0,9.927167 c -0.00151,1.332763 0.7353873,2.30566 1.7083959,2.955062 l -2.63185306,3.970867 c -0.38343511,0.593425 0.12458841,1.524801 0.83111146,1.523704 l 1.8469144,0 c 0.3223643,0.0085 0.6444242,-0.152615 0.8311116,-0.415555 l 1.985433,-2.955063 2.5856803,0 2.6318531,0 1.985433,2.955063 c 0.186687,0.26294 0.508748,0.42397 0.831112,0.415555 l 1.846914,0 c 0.706523,0.0011 1.214546,-0.930279 0.831112,-1.523704 L 13.82291,18.532812 c 0.973305,-0.649536 1.710757,-1.622123 1.708396,-2.955062 l 0,-9.927167 c 0.0037,-1.9537802 -1.614059,-3.6496952 -3.740002,-3.6476559 l -0.738765,0 c 0.0021,-0.035014 0.04617,-0.057118 0.04617,-0.092346 0,-0.91173891 -0.719751,-1.76478186 -1.7083964,-1.75456872 C 8.9871674,0.15166873 8.6731643,0.34807065 8.3745127,0.57156842 8.0700846,0.3318076 7.7313247,0.15151373 7.3125369,0.15601268 z"
     id="path4580"
     inkscape:connector-curvature="0"
     sodipodi:nodetypes="cccccccccccccccccccccccsccc" /><path
     d="M 7.3256881,2.6743612 C 6.9021136,2.6728223 6.556987,2.3277006 6.5561104,1.9050026 6.556987,1.476169 6.9021136,1.1308232 7.3256881,1.1354248 c 0.427738,-0.0046 0.7726456,0.3407442 0.7693587,0.7695778 0.00328,0.422698 -0.3418398,0.7678247 -0.7693587,0.7693586 l 0,0 z"
     id="path4543"
     inkscape:connector-curvature="0"
     style="fill:#007dff;fill-opacity:1" /><path
     d="M 9.3776033,2.6743612 C 9.8018351,2.6728223 10.14718,2.3277006 10.14718,1.9050026 10.14718,1.476169 9.8018351,1.1310423 9.3776033,1.1354248 8.9503035,1.1308283 8.6051769,1.476169 8.6080255,1.9050026 c -0.00285,0.422698 0.342278,0.7678247 0.7695778,0.7693586 l 0,0 z"
     id="path4545"
     inkscape:connector-curvature="0"
     style="fill:#007dff;fill-opacity:1" /><path
     d="m 12.432906,18.241438 c 1.067591,-0.177275 2.132116,-1.292417 2.129705,-2.653422 V 5.6518729 c 0.0026,-1.4008846 -1.177813,-2.6889201 -2.77679,-2.6873862 H 8.362602 4.9277698 C 3.3191507,2.9629528 2.1387079,4.2509883 2.1402418,5.6518729 v 9.9361431 c -0.00154,1.361005 1.0632093,2.476366 2.1297056,2.653422 l -3.2001462,4.806793 h 1.8507557 l 2.2859438,-3.367998 h 3.1449259 3.1447064 l 2.296901,3.367998 H 15.63305 L 12.432906,18.241438 z M 6.5449349,3.9908822 C 6.5453731,3.741953 6.7572699,3.5368491 7.0018169,3.5333431 h 1.3493906 1.3496097 c 0.2447658,0.00351 0.4575398,0.2086099 0.4575398,0.4575391 v 0.7798766 c 0,0.2482726 -0.2007221,0.458416 -0.4575398,0.4575398 H 8.3514266 7.002036 C 6.7463136,5.2291748 6.5455922,5.0190314 6.545154,4.7707588 V 3.9908822 z M 4.8609357,16.792124 c -0.6703126,-0.005 -1.216818,-0.551544 -1.2152842,-1.226678 -0.00154,-0.672942 0.5449716,-1.21879 1.2152842,-1.215503 0.6771058,-0.0036 1.2236112,0.542561 1.2266789,1.215503 -0.00285,0.675352 -0.5495731,1.221638 -1.2266789,1.226678 z M 5.017174,10.335735 C 4.2484728,10.331134 3.6215475,9.805226 3.6230813,8.9414241 V 7.1575013 C 3.6285629,6.413344 4.1093264,5.7647238 5.017174,5.7631902 H 8.3514266 11.68546 c 0.908943,0.00148 1.38993,0.6501538 1.394312,1.3943111 v 1.7839228 c 0.0023,0.8638019 -0.624516,1.3899289 -1.394312,1.3943109 H 8.3514266 5.017174 z m 5.575933,5.22993 c -0.0019,-0.672941 0.543875,-1.218791 1.215064,-1.215503 0.677106,-0.0036 1.223612,0.542562 1.227119,1.215503 -0.0036,0.675133 -0.550013,1.221419 -1.227119,1.226679 -0.671189,-0.0053 -1.217036,-0.551546 -1.215064,-1.226679 z"
     id="path4547"
     inkscape:connector-curvature="0"
     style="fill:#007dff;fill-opacity:1" /></svg>